/* XPM */
static char *d147f9b27674417df6aadb5de9e8b685UJXMVFON38JSpPqj[] = {
/* columns rows colors chars-per-pixel */
"16 16 73 1 ",
"  c None",
". c #1F3650",
"X c #203750",
"o c #2E5B7A",
"O c #2F5E7F",
"+ c #2F5F7F",
"@ c #305D7A",
"# c #4F5C73",
"$ c #335982",
"% c #326281",
"& c #3B628B",
"* c #3D779D",
"= c #3C73A0",
"- c #3F74A1",
"; c #3A78A3",
": c #3F7CA1",
"> c #3B7AA4",
", c #657998",
"< c #3C89B0",
"1 c #3D8AB0",
"2 c #3E8BB1",
"3 c #6A889F",
"4 c #4583A9",
"5 c #4580AA",
"6 c #4385AB",
"7 c #4682AC",
"8 c #4389AF",
"9 c #4488AF",
"0 c #458AAF",
"q c #418AB0",
"w c #408BB1",
"e c #448AB0",
"r c #408CB1",
"t c #418CB1",
"y c #408DB1",
"u c #418CB2",
"i c #418DB2",
"p c #418DB3",
"a c #428CB3",
"s c #418EB2",
"d c #428EB2",
"f c #468CB0",
"g c #448DB2",
"h c #468FB5",
"j c #4490B4",
"k c #4591B4",
"l c #4A93B5",
"z c #4A95B5",
"x c #4D96B4",
"c c #4D96B5",
"v c #4E94B6",
"b c #4E97B6",
"n c #4F98B7",
"m c #5198B6",
"M c #529AB7",
"N c #539BB8",
"B c #5AA0B9",
"V c #59A2BA",
"C c #5CA1BB",
"Z c #5EA2BB",
"A c #5BA4B8",
"S c #5CA4B9",
"D c #5FA6BB",
"F c #5EA7BB",
"G c #5BAABA",
"H c #5EA8BA",
"J c #5DA8BC",
"K c #61A9BA",
"L c #60A8BC",
"P c #6BA8BD",
"I c #6DA8C1",
"U c #74AEC3",
"Y c #74A9C6",
/* pixels */
"                ",
"                ",
"       ZZY      ",
"      tSD2      ",
"     etDK2e     ",
"    %*tJGt:%    ",
"   h%.$  &X@g   ",
"  tj7O #, o5j2  ",
"  ctg-U 3P-etz  ",
"   Nt4;  >4tc   ",
"    Mt9VHeen    ",
"     M2LL2c     ",
"      cVVz      ",
"       I        ",
"                ",
"                "
};
