/* XPM */
static char *c80ba4fe509d46d2e249a85b748b9041yQmBWEAZgOfKzana[] = {
/* columns rows colors chars-per-pixel */
"32 32 231 2 ",
"   c None",
".  c #141E34",
"X  c #162638",
"o  c #18223D",
"O  c #18243F",
"+  c #172D3E",
"@  c #182C3B",
"#  c #1D2A43",
"$  c #1C2A44",
"%  c #1F2C48",
"&  c #1A3342",
"*  c #1F374D",
"=  c #1B394A",
"-  c #1B3C4C",
";  c #182F51",
":  c #223656",
">  c #203F54",
",  c #264660",
"<  c #2A4567",
"1  c #25446D",
"2  c #26456D",
"3  c #354963",
"4  c #29506B",
"5  c #2B4970",
"6  c #2F4D75",
"7  c #325479",
"8  c #39577A",
"9  c #414B5C",
"0  c #345B88",
"q  c #3D608F",
"w  c #3D6891",
"e  c #3D6996",
"r  c #3F6B96",
"t  c #3E6A97",
"y  c #3A7192",
"u  c #3B7696",
"i  c #3C7694",
"p  c #387B97",
"a  c #3A719D",
"s  c #3B709F",
"d  c #3F719C",
"f  c #3C729C",
"g  c #3F729D",
"h  c #3E7E9B",
"j  c #397A9D",
"k  c #387E9F",
"l  c #3D76A1",
"z  c #3F75A3",
"x  c #3C79A3",
"c  c #3D7BA5",
"v  c #3F7CA5",
"b  c #406796",
"n  c #4B6C94",
"m  c #406F9B",
"M  c #416B9D",
"N  c #406C9C",
"B  c #41769F",
"V  c #4471A1",
"C  c #4473A2",
"Z  c #4078A1",
"A  c #4178A1",
"S  c #4179A2",
"D  c #427BA2",
"F  c #427BA3",
"G  c #427FA0",
"H  c #427FA2",
"J  c #4479A7",
"K  c #437CA4",
"L  c #417EA6",
"P  c #3E81A7",
"I  c #3F81A9",
"U  c #3F87AC",
"Y  c #3D8AAF",
"T  c #3E8AAE",
"R  c #3E8BAE",
"E  c #3D8CAF",
"W  c #3B89B0",
"Q  c #3D8AB0",
"!  c #3C8BB0",
"~  c #3D8BB0",
"^  c #3C8BB1",
"/  c #3D8BB1",
"(  c #3E8BB0",
")  c #3F8BB0",
"_  c #3E8CB1",
"`  c #3F8CB1",
"'  c #3F8EB1",
"]  c #3E8CB2",
"[  c #40829F",
"{  c #72949C",
"}  c #4382A5",
"|  c #4781A6",
" . c #4184A4",
".. c #4684A7",
"X. c #4382A9",
"o. c #4081AB",
"O. c #4382AA",
"+. c #4282AB",
"@. c #4480A8",
"#. c #4481A8",
"$. c #4483A9",
"%. c #4483AA",
"&. c #4386A8",
"*. c #4486A8",
"=. c #4485AB",
"-. c #4687AA",
";. c #4386AC",
":. c #4685AC",
">. c #4685AD",
",. c #4586AC",
"<. c #4487AC",
"1. c #4587AD",
"2. c #4786AD",
"3. c #4289AE",
"4. c #4588AD",
"5. c #4488AE",
"6. c #4489AE",
"7. c #4689AF",
"8. c #458AAF",
"9. c #478AAF",
"0. c #408CAF",
"q. c #408DAF",
"w. c #438CAF",
"e. c #448FAF",
"r. c #428AB0",
"t. c #428AB1",
"y. c #408AB2",
"u. c #458AB2",
"i. c #438CB0",
"p. c #438DB0",
"a. c #428DB1",
"s. c #428EB1",
"d. c #438EB1",
"f. c #438FB1",
"g. c #408CB2",
"h. c #438CB2",
"j. c #428DB2",
"k. c #408EB2",
"l. c #438EB2",
"z. c #438FB2",
"x. c #438EB3",
"c. c #448DB0",
"v. c #458DB0",
"b. c #448DB1",
"n. c #468DB0",
"m. c #478CB1",
"M. c #478DB1",
"N. c #448EB0",
"B. c #458EB1",
"V. c #468EB1",
"C. c #448EB2",
"Z. c #458EB2",
"A. c #448FB2",
"S. c #458FB2",
"D. c #448EB3",
"F. c #448FB3",
"G. c #458FB3",
"H. c #468EB2",
"J. c #468FB2",
"K. c #478FB2",
"L. c #468FB3",
"P. c #478FB3",
"I. c #438CB4",
"U. c #448DB4",
"Y. c #458FB4",
"T. c #468FB4",
"R. c #488EB2",
"E. c #488EB4",
"W. c #4490B1",
"Q. c #4590B2",
"!. c #4591B2",
"~. c #4590B3",
"^. c #4591B3",
"/. c #4690B2",
"(. c #4690B3",
"). c #4790B3",
"_. c #4691B3",
"`. c #4791B3",
"'. c #4692B2",
"]. c #4590B4",
"[. c #4690B4",
"{. c #4790B4",
"}. c #4691B4",
"|. c #4692B4",
" X c #4792B4",
".X c #4692B5",
"XX c #4792B5",
"oX c #4693B5",
"OX c #4793B5",
"+X c #4692B7",
"@X c #4797B7",
"#X c #4891B4",
"$X c #4991B5",
"%X c #4893B4",
"&X c #4992B5",
"*X c #4893B5",
"=X c #4A92B5",
"-X c #4B92B5",
";X c #4991B6",
":X c #4992B7",
">X c #4894B5",
",X c #4994B5",
"<X c #4C98B2",
"1X c #559FB3",
"2X c #539DB8",
"3X c #57A0BB",
"4X c #59A6BC",
"5X c #5CA6BC",
"6X c #68A0BD",
"7X c #6CA5BE",
"8X c #68AEBC",
"9X c #6EB0BF",
"0X c #6EACC3",
"qX c #6FAEC2",
"wX c #6EACC5",
"eX c #71AFC2",
"rX c #74AFC2",
"tX c #72ADC4",
"yX c #6DB0C0",
"uX c #6FB0C1",
"iX c #6DB1C2",
"pX c #73B2C1",
"aX c #76B1C2",
"sX c #74B3C3",
"dX c #73B5C4",
"fX c #72B7C5",
"gX c #75B7C4",
"hX c #7DB1C7",
"jX c #7BB9C8",
"kX c #85C2CD",
"lX c #87C2CD",
/* pixels */
"                                                                ",
"                                                                ",
"                                                                ",
"                                                                ",
"                            =X    E.                            ",
"                          :X'     {.M.                          ",
"                        =X' M.    >Xg.T.                        ",
"                      =X' {.'.    >X'.g.T.                      ",
"                    M.y.{.'.].    >XM.{.M.0.                    ",
"                  2.F 4.W.{.W.    >Xg.'.r.F I                   ",
"                $.I 2.2.g.'.{.    >X'.g.4.2.X.P                 ",
"              -.> , y  .M.{.+X    @X=Xg.&.u 4 * j               ",
"            :Xy.G & o 6 w f G     ..B e 7 % X i u.'             ",
"          {.W.{.J  .= o < 0         0 5 # @ [ S M.W.W.          ",
"        =Xg.E.{.$.M  .- .     3 8     % + P C F {.{.g.M.        ",
"      '.g.'.'.T.{.B M k {   9 ; 2 n     p C e W.].{.{.x.W       ",
"      lXR M.{.'.=X0.t a 3X    : 2     5XC e L {.{.'.T.^ 8X      ",
"        dXW.g.{.M.{.S g a <X        3XC f B =X{.T.T.' 9X        ",
"          dXE M.'.{.0.C S c 2X    5Xx B S 2.{.'.'.^ uX          ",
"            lXR M.'.M.X.$.$.U     e.=. .L T.'.{.W uX            ",
"              dXW.g.'.M.;.4.M.    =Xr.2.4.=X{.^ sX              ",
"                jX' g.'.M.'.'.    >XM.M.M.T.^ uX                ",
"                  gXM.W.'.{.'.    >X'.'.{.^ eX                  ",
"                    aX' g.{.M.    +XM.'.^ pX                    ",
"                      rXM.].'.    {.M.^ qX                      ",
"                        hX^ {.    >X^ wX                        ",
"                          6XT.    e.wX                          ",
"                            6X    tX                            ",
"                                                                ",
"                                                                ",
"                                                                ",
"                                                                "
};
