/* XPM */
static char *_b23a004b8d94f7bb55fa570cfb6db74jtJb4DUnl6HCwoHX[] = {
/* columns rows colors chars-per-pixel */
"64 64 166 2 ",
"   c None",
".  c #0F101F",
"X  c #0B0A21",
"o  c #0C1223",
"O  c #0E1A23",
"+  c #0D1E2C",
"@  c #131629",
"#  c #121B2D",
"$  c #121425",
"%  c #111E34",
"&  c #131D39",
"*  c #0F202D",
"=  c #11202F",
"-  c #0D223B",
";  c #142332",
":  c #192136",
">  c #172538",
",  c #1A253D",
"<  c #1C293C",
"1  c #20253E",
"2  c #172742",
"3  c #162B47",
"4  c #1C2C45",
"5  c #1C2E4A",
"6  c #1E344A",
"7  c #1F355D",
"8  c #202A40",
"9  c #2C384A",
"0  c #223554",
"q  c #293757",
"w  c #213E56",
"e  c #253B5A",
"r  c #173B64",
"t  c #253C63",
"y  c #35414D",
"u  c #2A4853",
"i  c #324252",
"p  c #37465F",
"a  c #22535F",
"s  c #264464",
"d  c #294264",
"f  c #224964",
"g  c #234169",
"h  c #2E476A",
"j  c #2C4A6C",
"k  c #384A60",
"l  c #314C6E",
"z  c #265462",
"x  c #2A5665",
"c  c #275B67",
"v  c #214770",
"b  c #2B4F79",
"n  c #314B72",
"m  c #2F5176",
"M  c #34537A",
"N  c #375878",
"B  c #30617E",
"V  c #445672",
"C  c #285180",
"Z  c #2D588A",
"A  c #335683",
"S  c #375A83",
"D  c #395C83",
"F  c #395A8A",
"G  c #335A8A",
"H  c #2F6686",
"J  c #36608E",
"K  c #3C638C",
"L  c #376C88",
"P  c #376984",
"I  c #36788A",
"U  c #3A7A8D",
"Y  c #3D768B",
"T  c #376590",
"R  c #3D6493",
"E  c #3D6B95",
"W  c #3D6D9B",
"Q  c #3C7C94",
"!  c #3E739D",
"~  c #3D799C",
"^  c #3D74A1",
"/  c #3E79A1",
"(  c #3C7DAB",
")  c #416495",
"_  c #416A97",
"`  c #466798",
"'  c #416C99",
"]  c #41729D",
"[  c #457A9E",
"{  c #52759D",
"}  c #697E92",
"|  c #416EA2",
" . c #4275A1",
".. c #437CA4",
"X. c #447FAB",
"o. c #5676A0",
"O. c #527DA2",
"+. c #3D839E",
"@. c #3C83AC",
"#. c #378CAC",
"$. c #3D8BAE",
"%. c #3490AC",
"&. c #3C91AC",
"*. c #3585B0",
"=. c #3D8BB2",
"-. c #3E93B0",
";. c #3E99B4",
":. c #51849C",
">. c #6B859D",
",. c #4282A5",
"<. c #4389A7",
"1. c #4484AB",
"2. c #448AAE",
"3. c #4888AF",
"4. c #4494AD",
"5. c #429BAD",
"6. c #4285B0",
"7. c #458EB3",
"8. c #498EB3",
"9. c #468EB9",
"0. c #488FB9",
"q. c #4691B3",
"w. c #4991B4",
"e. c #4699B1",
"r. c #4791B9",
"t. c #4C97BB",
"y. c #469FBC",
"u. c #499DBC",
"i. c #539FB2",
"p. c #599CB5",
"a. c #5997B8",
"s. c #5E9FBA",
"d. c #6D88A8",
"f. c #659DB7",
"g. c #609EBA",
"h. c #699EBA",
"j. c #4CA1BD",
"k. c #5EA9B1",
"l. c #5EA0BA",
"z. c #63ABB4",
"x. c #69AFB6",
"c. c #63A3BD",
"v. c #6BA7BC",
"b. c #64ACBB",
"n. c #69ABBD",
"m. c #70A3BB",
"M. c #75B3BF",
"N. c #4F97C0",
"B. c #4D9BC1",
"V. c #529AC0",
"C. c #64A6C0",
"Z. c #6BA6C3",
"A. c #72ACC6",
"S. c #76B5C3",
"D. c #79B5C2",
"F. c #75BAC3",
"G. c #7ABBC3",
"H. c #83BBC6",
"J. c #93BBCC",
"K. c #87C4CB",
"L. c #8BC5CC",
"P. c #8DC9CE",
"I. c #94C3CE",
"U. c #8AC7D0",
"Y. c #9AC5D0",
"T. c #91CCD1",
/* pixels */
"                                                                                                                                ",
"                                                                                                                                ",
"                                                                                                                                ",
"                                                                                                                                ",
"                                                                                                                                ",
"                                                                                                                                ",
"                                                            J.                                                                  ",
"                                                          a.Z.      r.                                                          ",
"                                                        h.*.S.      7.8.                                                        ",
"                                                      s.=.=.A.      w.6.9.                                                      ",
"                                                    c.=.w.=.S.      q.8.=.8.                                                    ",
"                                                  f.=.q.q.=.D.      q.r.q.7.8.                                                  ",
"                                                c.=.q.q.q.$.D.      q.q.q.q.7.7.                                                ",
"                                              s.=.7.q.q.q.$.D.      r.q.q.q.q.7.8.                                              ",
"                                            h.=.q.q.q.q.q.$.S.      q.q.q.q.q.q.7.7.                                            ",
"                                          s.=.q.q.q.q.q.7.$.F.      r.q.q.q.q.7.q.7.0.                                          ",
"                                        l.=.8.8.q.q.q.q.q.$.F.      r.8.q.q.7.q.q.w.2.7.                                        ",
"                                      g.*.1.8.8.q.q.q.q.q.=.S.      r.7.q.q.q.q.q.7.1.1.q.                                      ",
"                                    s.@.X.1.1.2.q.q.q.q.q.=.S.      q.8.7.q.q.q.7.2.1.,.@.7.                                    ",
"                                  c.@. ...1.1.2.2.7.7.q.q.$.F.      e.7.q.q.q.7.2.1.1.1. .( w.                                  ",
"                                c.( ] ] ....1.2.2.2.q.q.q.$.F.      e.q.q.7.q.2.2.1.,... . ./ 7.                                ",
"                              :.@.8.q.2.1.X.,.1.$.7.7.q.q.=.S.      q.9.q.q.7.$.1.1.1.1.1.7.q.=.~                               ",
"                            C.H = w B [ <.e.w.8.8.7.7.7.8.7.F.      q.r.q.7.7.2.7.w.w.2.+.L l : f q.                            ",
"                          g.6.t._ . % 0 f N E ,.4.w.q.t.q.=.F.      e.r.q.t.e.4.<.Q H j w , X u t.6.r.                          ",
"                        a.=.q.@.i.I O % 0 t n A F _ ~ <.2.%.M.      4.8.1.[ ] K S m h q , X a V.X.2.-.7.                        ",
"                      f.=.8.q.1.E u._ O + 5 d M S K R R R T         O.T ) R R F M j 0 , o z u.X./ q.q.2.7.                      ",
"                    l.=.w.w.q.w.^ W j.I + % 4 0 l D K R K             o.J _ K M s 4 > o x j.X.T 8.q.q.q.7.q.                    ",
"                  s.=.q.q.q.q.w.6.K ] j.I % > 4 0 f A R         }       { G l 0 4 , @ z j.X.F ..w.7.q.q.q.=.w.                  ",
"                g.6.q.q.7.q.q.q.w.] R ^ u.] * ; 4 4 e         e r >.      N 4 5 , @ c j.X.R _ 8.q.w.q.q.q.q.7.q.                ",
"              l.=.r.w.7.q.q.q.7.q.3.) ) W j.Q = ; 1         6 t j v >.      k > # x j.1.) ) ~ q.q.q.q.q.7.q.q.6.q.              ",
"            p.=.q.q.w.q.w.q.q.q.8.q.! R K ] u.U <         4 0 d h M C d.      9 z j.X.R ) E 2.q.q.q.q.q.q.q.q.q.9.q.            ",
"          L.#.8.q.q.q.q.7.q.7.w.w.q.1.E _ E ^ q.z.      y - e t h M Z Z         ;.X.E ` R / w.w.7.q.q.7.q.7.q.7.9.#.z.          ",
"            K.%.7.4.w.q.q.7.q.q.q.q.q. .E W W ^ ;.G.      i 5 t n b M         u.X.E W ' W 2.8.q.q.7.q.q.q.r.q.q.$.k.            ",
"              P.$.7.8.q.q.q.q.7.q.q.q.1.' ! ! ! / =.D.      k e s m         e.@.! ] ' ' ..q.q.q.q.q.q.q.q.q.9.=.b.              ",
"                K.2.q.q.q.q.q.q.q.q.q.8.^ W ! ! ' ..#.G.      V t         e.1.! ! ] ] ! 3.q.w.q.q.q.8.q.q.q.q.b.                ",
"                  L.$.7.4.8.q.q.7.q.w.w.1.]  ./  .! @.%.F.              4.1. . . . .] ..w.q.q.q.q.7.q.q.q.=.z.                  ",
"                    P.$.q.q.q.q.q.q.7.w.q.../ / / ....1.#.M.          e.1..... . . . .2.q.q.7.q.q.8.q.q.=.b.                    ",
"                      U.$.q.q.q.q.q.q.8.q.1. ...........6.#.L.      e.@.1.,.........1.q.q.q.q.q.q.q.w.$.b.                      ",
"                        P.&.q.q.8.q.w.7.q.q.1.....1.1.1.@.$.S.      q.1.1.,.1.,.....7.q.w.7.q.r.q.7.=.b.                        ",
"                          F.7.q.w.q.q.q.q.w.1...1.1.2.1.1.$.F.      e.6.1.1.1.1.,.1.w.q.q.q.q.q.q.=.b.                          ",
"                            U.2.7.q.q.q.7.w.2.2.1.1.3.3.2.2.F.      q.7.3.3.3.1.,.3.w.w.q.q.q.7.$.z.                            ",
"                              T.&.7.q.7.q.q.q.2.2.2.2.2.q.$.S.      q.7.2.3.3.2.3.w.w.w.9.q.q.=.b.                              ",
"                                P.7.7.q.7.q.q.q.2.2.2.7.q.$.S.      r.q.2.w.8.2.7.q.7.q.q.q.=.b.                                ",
"                                  L.4.7.q.q.q.q.w.8.w.w.q.$.F.      r.q.w.8.w.2.8.8.q.q.q.=.x.                                  ",
"                                    P.&.q.q.q.q.q.q.7.q.q.$.F.      e.9.q.q.q.q.w.q.q.7.=.n.                                    ",
"                                      G.8.7.q.q.q.q.q.q.q.$.S.      r.q.q.q.7.q.q.q.q.$.n.                                      ",
"                                        D.2.7.4.q.7.q.q.q.$.D.      q.q.q.q.q.q.7.7.=.x.                                        ",
"                                          I.$.7.q.w.q.7.q.$.D.      q.r.q.7.4.q.8.=.n.                                          ",
"                                              7.7.q.q.7.q.$.D.      q.7.q.q.q.q.$.b.                                            ",
"                                              H.$.q.q.q.q.=.D.      q.q.7.q.9.=.n.                                              ",
"                                                I.7.8.q.q.$.D.      q.q.q.q.=.n.                                                ",
"                                                    7.7.q.2.D.      q.7.q.=.c.                                                  ",
"                                                      7.7.=.A.      q.w.$.c.                                                    ",
"                                                        7.=.A.      q.$.C.                                                      ",
"                                                          @.A.      $.v.                                                        ",
"                                                          m.n.      s.                                                          ",
"                                                                                                                                ",
"                                                                                                                                ",
"                                                                                                                                ",
"                                                                                                                                ",
"                                                                                                                                ",
"                                                                                                                                ",
"                                                                                                                                ",
"                                                                                                                                "
};
